<?xml version="1.0" encoding="UTF-8" standalone="no"?>
<!-- Created with Inkscape (http://www.inkscape.org/) -->

<svg
   xmlns:dc="http://purl.org/dc/elements/1.1/"
   xmlns:cc="http://creativecommons.org/ns#"
   xmlns:rdf="http://www.w3.org/1999/02/22-rdf-syntax-ns#"
   xmlns:svg="http://www.w3.org/2000/svg"
   xmlns="http://www.w3.org/2000/svg"
   xmlns:sodipodi="http://sodipodi.sourceforge.net/DTD/sodipodi-0.dtd"
   xmlns:inkscape="http://www.inkscape.org/namespaces/inkscape"
   width="13.546667mm"
   height="13.546668mm"
   viewBox="0 0 48.000002 48.000005"
   id="svg6458"
   version="1.1"
   inkscape:version="0.91 r13725"
   sodipodi:docname="launcher_icon.svg">
  <defs
     id="defs6460">
    <clipPath
       id="clipEmfPath1"
       clipPathUnits="userSpaceOnUse">
      <path
         inkscape:connector-curvature="0"
         id="path4168"
         d="m 137.024,81.8244 237.973,0 0,174.1486 -237.973,0 z" />
    </clipPath>
    <clipPath
       id="clipEmfPath2"
       clipPathUnits="userSpaceOnUse">
      <path
         inkscape:connector-curvature="0"
         id="path4171"
         d="m 137.024,255.973 237.973,0 0,174.224 -237.973,0 z" />
    </clipPath>
  </defs>
  <sodipodi:namedview
     id="base"
     pagecolor="#ffffff"
     bordercolor="#666666"
     borderopacity="1.0"
     inkscape:pageopacity="0.0"
     inkscape:pageshadow="2"
     inkscape:zoom="0.35"
     inkscape:cx="24.000001"
     inkscape:cy="24.000002"
     inkscape:document-units="px"
     inkscape:current-layer="layer1"
     showgrid="false"
     fit-margin-top="0"
     fit-margin-left="0"
     fit-margin-right="0"
     fit-margin-bottom="0"
     inkscape:window-width="1920"
     inkscape:window-height="1027"
     inkscape:window-x="-8"
     inkscape:window-y="-8"
     inkscape:window-maximized="1" />
  <metadata
     id="metadata6463">
    <rdf:RDF>
      <cc:Work
         rdf:about="">
        <dc:format>image/svg+xml</dc:format>
        <dc:type
           rdf:resource="http://purl.org/dc/dcmitype/StillImage" />
        <dc:title></dc:title>
      </cc:Work>
    </rdf:RDF>
  </metadata>
  <g
     inkscape:label="Layer 1"
     inkscape:groupmode="layer"
     id="layer1"
     transform="translate(76.142858,-508.3622)">
    <g
       id="g4249"
       transform="matrix(0.33217144,0,0,0.33217144,-97.273132,522.1606)">
      <path
         style="fill:#ffffff;fill-opacity:1;fill-rule:evenodd;stroke:none"
         d="m 63.612556,-41.539986 144.503694,0 0,144.503706 -144.503694,0 z"
         id="path4174"
         inkscape:connector-curvature="0" />
      <g
         transform="translate(0.0106255,0.0106285)"
         id="g4236">
        <path
           inkscape:connector-curvature="0"
           id="path4178"
           d="m 198.14675,30.701283 c 0,34.416721 -27.87621,62.292931 -62.29292,62.292931 -34.39556,0 -62.293025,-27.87621 -62.293025,-62.292931 0,-34.3955505 27.897465,-62.29302 62.293025,-62.29302 34.41671,0 62.29292,27.8974695 62.29292,62.29302 z"
           style="fill:#333333;fill-opacity:1;fill-rule:nonzero;stroke:none" />
        <g
           id="g4225">
          <path
             style="fill:#f40332;fill-opacity:1;fill-rule:nonzero;stroke:none"
             d="m 169.44504,-3.9271015 c 0,3.42899995 -1.31234,6.35 -3.937,8.763 -2.62467,2.391834 -5.79967,3.577167 -9.50355,3.577167 -3.70417,0 -6.87917,-1.185333 -9.48267,-3.577167 -2.62467,-2.413 -3.93699,-5.33400005 -3.93699,-8.763 -1.43934,0.148167 -2.159,1.397 -2.159,3.72533395 0,4.72016605 1.43933,8.14916605 4.29682,10.24466555 l 12.91167,0 0,10.752385 -12.91167,0 0,5.355167 c 5.207,0 9.652,1.905 13.2715,5.715 3.68272,3.767666 5.52422,8.3185 5.52422,13.631333 0,6.582833 -1.94733,12.170551 -5.82055,16.742551 -3.85233,4.59317 -8.55133,6.87917 -14.07583,6.87917 l -26.28872,0 c -0.93133,0 -1.7145,0.29633 -2.3495,0.889 -0.59266,0.635 -0.889,1.41816 -0.889,2.3495 l 0,7.51416 -11.811,0 0,-7.51416 c 0,-4.14867 1.4605,-7.70467 4.40267,-10.64684 2.94217,-2.94216 6.49817,-4.402663 10.64683,-4.402663 l 26.28872,0 c 2.18016,0 3.97933,-1.121834 5.41866,-3.3655 1.41817,-2.264551 2.13784,-5.079718 2.13784,-8.445218 0,-2.370667 -0.635,-4.402667 -1.88384,-6.074833 -1.27,-1.693334 -2.77283,-2.518834 -4.572,-2.518834 l 0,2.137834 c 0,4.656666 -1.9685,8.593666 -5.92666,11.811 -3.91583,3.217051 -8.74183,4.825717 -14.478,4.825717 -5.79938,0 -10.75238,-1.672166 -14.83755,-5.037384 -4.10633,-3.344333 -6.1595,-7.387167 -6.1595,-12.107333 0,-3.471334 1.10067,-6.392334 3.25967,-8.763 2.20133,-2.413 4.91066,-3.6195 8.08566,-3.6195 l 0,-16.107552 18.26656,0 c -2.51884,-3.0903325 -3.78884,-6.4981655 -3.78884,-10.24466555 0,-4.99533395 2.159,-9.27100025 6.45584,-12.84816745 4.29683,-3.598249 9.50382,-5.397387 15.57866,-5.397387 5.08,0 9.37655,1.397 12.91138,4.190972 3.556,2.793915 5.35517,6.2440825 5.35517,10.3292485 z m -10.75239,0 c 0,-0.804333 -0.254,-1.439333 -0.74083,-1.926166 -0.48683,-0.529167 -1.143,-0.804334 -1.94733,-0.804334 -0.80434,0 -1.43934,0.275167 -1.94734,0.804334 -0.48683,0.486833 -0.71966,1.121833 -0.71966,1.926166 0,0.783167 0.23283,1.418167 0.71966,1.947334 0.508,0.486833 1.143,0.740833 1.94734,0.740833 0.80433,0 1.4605,-0.254 1.94733,-0.740833 0.48683,-0.529167 0.74083,-1.164167 0.74083,-1.947334 z m -25.75982,30.0775515 0,-5.355167 -6.985,0 0,5.355167 6.985,0 z m 0,12.8905 0,-2.137834 -14.54122,0 c -2.13784,0 -3.19617,0.719667 -3.19617,2.137834 0,1.375833 0.86783,2.518833 2.62467,3.471333 1.73566,0.910167 3.91555,1.375833 6.49788,1.375833 2.3495,0 4.36034,-0.486833 6.0325,-1.418166 1.7145,-0.994834 2.58234,-2.116667 2.58234,-3.429 z"
             id="path4180"
             inkscape:connector-curvature="0" />
          <path
             style="fill:#f40332;fill-opacity:1;fill-rule:nonzero;stroke:none"
             clip-path="url(#clipEmfPath1)"
             d="m 374.997,133.274 c 0,12.15 -4.65,22.5 -13.95,31.05 -9.3,8.475 -20.55,12.675 -33.674,12.675 -13.125,0 -24.375,-4.2 -33.6,-12.675 -9.3,-8.55 -13.95,-18.9 -13.95,-31.05 -5.1,0.525 -7.65,4.95 -7.65,13.2 0,16.725 5.1,28.875 15.225,36.3 l 45.75,0 0,38.099 -45.75,0 0,18.975 c 18.45,0 34.2,6.75 47.025,20.25 13.049,13.35 19.574,29.475 19.574,48.3 0,23.325 -6.9,43.124 -20.624,59.324 -13.65,16.275 -30.3,24.375 -49.875,24.375 l -93.149,0 c -3.3,0 -6.075,1.05 -8.325,3.15 -2.1,2.25 -3.15,5.025 -3.15,8.325 l 0,26.625 -41.85,0 0,-26.625 c 0,-14.7 5.175,-27.3 15.6,-37.725 10.425,-10.425 23.025,-15.6 37.725,-15.6 l 93.149,0 c 7.725,0 14.1,-3.975 19.2,-11.925 5.025,-8.024 7.575,-17.999 7.575,-29.924 0,-8.4 -2.25,-15.6 -6.675,-21.525 -4.5,-6 -9.825,-8.925 -16.2,-8.925 l 0,7.575 c 0,16.5 -6.975,30.45 -21,41.85 -13.875,11.399 -30.975,17.099 -51.3,17.099 -20.549,0 -38.099,-5.925 -52.574,-17.849 -14.55,-11.85 -21.75,-26.175 -21.75,-42.9 0,-12.3 3.825,-22.65 11.475,-31.05 7.8,-8.55 17.4,-12.825 28.65,-12.825 l 0,-57.074 64.724,0 c -8.925,-10.95 -13.425,-23.025 -13.425,-36.3 0,-17.7 7.65,-32.85 22.875,-45.525 15.225,-12.7497 33.675,-19.1246 55.2,-19.1246 18,0 33.224,4.95 45.749,14.8499 12.6,9.8997 18.975,22.1247 18.975,36.5997 z m -38.099,0 c 0,-2.85 -0.9,-5.1 -2.625,-6.825 -1.725,-1.875 -4.05,-2.85 -6.9,-2.85 -2.85,0 -5.1,0.975 -6.9,2.85 -1.725,1.725 -2.55,3.975 -2.55,6.825 0,2.775 0.825,5.025 2.55,6.9 1.8,1.725 4.05,2.625 6.9,2.625 2.85,0 5.175,-0.9 6.9,-2.625 1.725,-1.875 2.625,-4.125 2.625,-6.9 z m -91.275,106.574 0,-18.975 -24.75,0 0,18.975 24.75,0 z m 0,45.675 0,-7.575 -51.524,0 c -7.575,0 -11.325,2.55 -11.325,7.575 0,4.875 3.075,8.925 9.3,12.3 6.15,3.225 13.874,4.875 23.024,4.875 8.325,0 15.45,-1.725 21.375,-5.025 6.075,-3.525 9.15,-7.5 9.15,-12.15 z"
             id="path4184"
             inkscape:connector-curvature="0"
             transform="matrix(0.28222222,0,0,0.28222222,63.612556,-41.539986)" />
          <path
             style="fill:#dededc;fill-opacity:1;fill-rule:nonzero;stroke:none"
             clip-path="url(#clipEmfPath2)"
             d="m 374.997,133.274 c 0,12.15 -4.65,22.5 -13.95,31.05 -9.3,8.475 -20.55,12.675 -33.674,12.675 -13.125,0 -24.375,-4.2 -33.6,-12.675 -9.3,-8.55 -13.95,-18.9 -13.95,-31.05 -5.1,0.525 -7.65,4.95 -7.65,13.2 0,16.725 5.1,28.875 15.225,36.3 l 45.75,0 0,38.099 -45.75,0 0,18.975 c 18.45,0 34.2,6.75 47.025,20.25 13.049,13.35 19.574,29.475 19.574,48.3 0,23.325 -6.9,43.124 -20.624,59.324 -13.65,16.275 -30.3,24.375 -49.875,24.375 l -93.149,0 c -3.3,0 -6.075,1.05 -8.325,3.15 -2.1,2.25 -3.15,5.025 -3.15,8.325 l 0,26.625 -41.85,0 0,-26.625 c 0,-14.7 5.175,-27.3 15.6,-37.725 10.425,-10.425 23.025,-15.6 37.725,-15.6 l 93.149,0 c 7.725,0 14.1,-3.975 19.2,-11.925 5.025,-8.024 7.575,-17.999 7.575,-29.924 0,-8.4 -2.25,-15.6 -6.675,-21.525 -4.5,-6 -9.825,-8.925 -16.2,-8.925 l 0,7.575 c 0,16.5 -6.975,30.45 -21,41.85 -13.875,11.399 -30.975,17.099 -51.3,17.099 -20.549,0 -38.099,-5.925 -52.574,-17.849 -14.55,-11.85 -21.75,-26.175 -21.75,-42.9 0,-12.3 3.825,-22.65 11.475,-31.05 7.8,-8.55 17.4,-12.825 28.65,-12.825 l 0,-57.074 64.724,0 c -8.925,-10.95 -13.425,-23.025 -13.425,-36.3 0,-17.7 7.65,-32.85 22.875,-45.525 15.225,-12.7497 33.675,-19.1246 55.2,-19.1246 18,0 33.224,4.95 45.749,14.8499 12.6,9.8997 18.975,22.1247 18.975,36.5997 z m -38.099,0 c 0,-2.85 -0.9,-5.1 -2.625,-6.825 -1.725,-1.875 -4.05,-2.85 -6.9,-2.85 -2.85,0 -5.1,0.975 -6.9,2.85 -1.725,1.725 -2.55,3.975 -2.55,6.825 0,2.775 0.825,5.025 2.55,6.9 1.8,1.725 4.05,2.625 6.9,2.625 2.85,0 5.175,-0.9 6.9,-2.625 1.725,-1.875 2.625,-4.125 2.625,-6.9 z m -91.275,106.574 0,-18.975 -24.75,0 0,18.975 24.75,0 z m 0,45.675 0,-7.575 -51.524,0 c -7.575,0 -11.325,2.55 -11.325,7.575 0,4.875 3.075,8.925 9.3,12.3 6.15,3.225 13.874,4.875 23.024,4.875 8.325,0 15.45,-1.725 21.375,-5.025 6.075,-3.525 9.15,-7.5 9.15,-12.15 z"
             id="path4188"
             inkscape:connector-curvature="0"
             transform="matrix(0.28222222,0,0,0.28222222,63.612556,-41.539986)" />
          <path
             style="fill:#a8a8a7;fill-opacity:1;fill-rule:evenodd;stroke:none"
             d="m 116.44427,30.701283 c -3.302,-5.291667 4.191,-5.7785 7.49272,-4.0005 l -9.37655,-16.679051 c 0.67733,6.984718 -0.93133,20.573718 1.88383,20.679551 z"
             id="path4190"
             inkscape:connector-curvature="0" />
          <path
             style="fill:none;stroke:none"
             d="m 116.44427,30.701283 c -3.302,-5.291667 4.191,-5.7785 7.49272,-4.0005 l -9.37655,-16.679051 c 0.67733,6.984718 -0.93133,20.573718 1.88383,20.679551 z"
             id="path4192"
             inkscape:connector-curvature="0" />
          <path
             style="fill:#dadada;fill-opacity:1;fill-rule:evenodd;stroke:none"
             d="m 116.42311,30.701283 c -2.3495,-4.614333 0.67733,-5.990167 4.29683,-7.112 l -6.18067,-13.567551 c 0.59267,6.900051 -0.84666,20.404384 1.88384,20.679551 z"
             id="path4194"
             inkscape:connector-curvature="0" />
          <path
             style="fill:none;stroke:none"
             d="m 116.42311,30.701283 c -2.3495,-4.614333 0.67733,-5.990167 4.29683,-7.112 l -6.18067,-13.567551 c 0.59267,6.900051 -0.84666,20.404384 1.88384,20.679551 z"
             id="path4196"
             inkscape:connector-curvature="0" />
          <path
             style="fill:#ffffff;fill-opacity:1;fill-rule:evenodd;stroke:none"
             d="m 116.40194,30.701283 c -1.778,-4.169833 -0.1905,-6.371167 2.11667,-8.297333 l -3.95817,-12.361052 c 0.508,6.878885 -1.12183,20.467885 1.8415,20.658385 z"
             id="path4198"
             inkscape:connector-curvature="0" />
          <path
             style="fill:none;stroke:none"
             d="m 116.40194,30.701283 c -1.778,-4.169833 -0.1905,-6.371167 2.11667,-8.297333 l -3.95817,-12.361052 c 0.508,6.878885 -1.12183,20.467885 1.8415,20.658385 z"
             id="path4200"
             inkscape:connector-curvature="0" />
        </g>
      </g>
    </g>
  </g>
</svg>
